<svg width="208" height="32" viewBox="0 0 208 32" fill="none" xmlns="http://www.w3.org/2000/svg">
<path opacity="0.7" d="M37.463 9.472H42.441C44.6577 9.472 46.374 10.061 47.59 11.239C48.8187 12.417 49.433 14.0763 49.433 16.217C49.433 18.3703 48.8187 20.0423 47.59 21.233C46.374 22.411 44.6577 23 42.441 23H37.463V9.472ZM42.289 21.005C45.405 21.005 46.963 19.409 46.963 16.217C46.963 13.0503 45.405 11.467 42.289 11.467H39.914V21.005H42.289ZM61.3417 13.405V23H59.0047V21.461C58.7133 21.993 58.2953 22.411 57.7507 22.715C57.206 23.0063 56.5853 23.152 55.8887 23.152C55.0527 23.152 54.3117 22.9493 53.6657 22.544C53.0197 22.1387 52.5193 21.5623 52.1647 20.815C51.81 20.0677 51.6327 19.2 51.6327 18.212C51.6327 17.224 51.81 16.35 52.1647 15.59C52.532 14.8173 53.0387 14.222 53.6847 13.804C54.3307 13.3733 55.0653 13.158 55.8887 13.158C56.5853 13.158 57.206 13.31 57.7507 13.614C58.2953 13.9053 58.7133 14.317 59.0047 14.849V13.405H61.3417ZM56.5347 21.29C57.32 21.29 57.928 21.0177 58.3587 20.473C58.7893 19.9283 59.0047 19.162 59.0047 18.174C59.0047 17.1607 58.7893 16.3817 58.3587 15.837C57.928 15.2923 57.3137 15.02 56.5157 15.02C55.7303 15.02 55.116 15.305 54.6727 15.875C54.242 16.4323 54.0267 17.2113 54.0267 18.212C54.0267 19.2 54.242 19.96 54.6727 20.492C55.116 21.024 55.7367 21.29 56.5347 21.29ZM67.8433 23.152C66.108 23.152 64.7273 22.7467 63.7013 21.936L64.3663 20.264C65.3923 21.024 66.564 21.404 67.8813 21.404C68.4513 21.404 68.8883 21.309 69.1923 21.119C69.509 20.929 69.6673 20.663 69.6673 20.321C69.6673 20.0297 69.5597 19.8017 69.3443 19.637C69.129 19.4597 68.7617 19.3077 68.2423 19.181L66.6463 18.82C64.8983 18.44 64.0243 17.547 64.0243 16.141C64.0243 15.5583 64.189 15.0453 64.5183 14.602C64.8477 14.146 65.31 13.7913 65.9053 13.538C66.5007 13.2847 67.191 13.158 67.9763 13.158C68.6603 13.158 69.319 13.2657 69.9523 13.481C70.5857 13.6837 71.143 13.9813 71.6243 14.374L70.9213 15.989C69.9587 15.2797 68.9707 14.925 67.9573 14.925C67.4127 14.925 66.9883 15.0263 66.6843 15.229C66.3803 15.4317 66.2283 15.7103 66.2283 16.065C66.2283 16.3437 66.317 16.5653 66.4943 16.73C66.6843 16.8947 67.001 17.034 67.4443 17.148L69.0783 17.509C70.0283 17.7243 70.7187 18.06 71.1493 18.516C71.5927 18.9593 71.8143 19.542 71.8143 20.264C71.8143 21.1507 71.4597 21.8537 70.7503 22.373C70.041 22.8923 69.072 23.152 67.8433 23.152ZM79.7379 13.158C82.0306 13.158 83.1769 14.4753 83.1769 17.11V23H80.8019V17.224C80.8019 16.464 80.6562 15.913 80.3649 15.571C80.0736 15.2163 79.6239 15.039 79.0159 15.039C78.2939 15.039 77.7112 15.2733 77.2679 15.742C76.8246 16.198 76.6029 16.806 76.6029 17.566V23H74.2469V9.016H76.6029V14.792C76.9322 14.2727 77.3692 13.8737 77.9139 13.595C78.4586 13.3037 79.0666 13.158 79.7379 13.158ZM91.5671 13.158C92.4031 13.158 93.1378 13.367 93.7711 13.785C94.4171 14.1903 94.9175 14.7667 95.2721 15.514C95.6268 16.2613 95.8041 17.129 95.8041 18.117C95.8041 19.105 95.6205 19.9853 95.2531 20.758C94.8985 21.518 94.3981 22.107 93.7521 22.525C93.1188 22.943 92.3905 23.152 91.5671 23.152C90.8578 23.152 90.2245 23 89.6671 22.696C89.1225 22.392 88.7108 21.9677 88.4321 21.423V23H86.0951V9.016H88.4511V14.849C88.7425 14.317 89.1605 13.9053 89.7051 13.614C90.2498 13.31 90.8705 13.158 91.5671 13.158ZM90.9401 21.29C91.7255 21.29 92.3335 21.0113 92.7641 20.454C93.1948 19.8967 93.4101 19.1177 93.4101 18.117C93.4101 17.129 93.1948 16.369 92.7641 15.837C92.3335 15.2923 91.7191 15.02 90.9211 15.02C90.1231 15.02 89.5088 15.2923 89.0781 15.837C88.6475 16.3817 88.4321 17.1543 88.4321 18.155C88.4321 19.1683 88.6475 19.9473 89.0781 20.492C89.5088 21.024 90.1295 21.29 90.9401 21.29ZM102.628 23.152C101.653 23.152 100.792 22.9493 100.044 22.544C99.3097 22.1387 98.7397 21.5623 98.3344 20.815C97.9417 20.055 97.7454 19.1683 97.7454 18.155C97.7454 17.1417 97.9417 16.2613 98.3344 15.514C98.7397 14.754 99.3097 14.1713 100.044 13.766C100.792 13.3607 101.653 13.158 102.628 13.158C103.591 13.158 104.44 13.3607 105.174 13.766C105.909 14.1713 106.473 14.754 106.865 15.514C107.271 16.2613 107.473 17.1417 107.473 18.155C107.473 19.1683 107.271 20.055 106.865 20.815C106.473 21.5623 105.909 22.1387 105.174 22.544C104.44 22.9493 103.591 23.152 102.628 23.152ZM102.609 21.29C103.42 21.29 104.034 21.0303 104.452 20.511C104.883 19.979 105.098 19.1937 105.098 18.155C105.098 17.129 104.883 16.35 104.452 15.818C104.022 15.2733 103.414 15.001 102.628 15.001C101.83 15.001 101.216 15.2733 100.785 15.818C100.355 16.35 100.139 17.129 100.139 18.155C100.139 19.1937 100.348 19.979 100.766 20.511C101.197 21.0303 101.811 21.29 102.609 21.29ZM119.098 13.405V23H116.761V21.461C116.47 21.993 116.052 22.411 115.507 22.715C114.963 23.0063 114.342 23.152 113.645 23.152C112.809 23.152 112.068 22.9493 111.422 22.544C110.776 22.1387 110.276 21.5623 109.921 20.815C109.567 20.0677 109.389 19.2 109.389 18.212C109.389 17.224 109.567 16.35 109.921 15.59C110.289 14.8173 110.795 14.222 111.441 13.804C112.087 13.3733 112.822 13.158 113.645 13.158C114.342 13.158 114.963 13.31 115.507 13.614C116.052 13.9053 116.47 14.317 116.761 14.849V13.405H119.098ZM114.291 21.29C115.077 21.29 115.685 21.0177 116.115 20.473C116.546 19.9283 116.761 19.162 116.761 18.174C116.761 17.1607 116.546 16.3817 116.115 15.837C115.685 15.2923 115.07 15.02 114.272 15.02C113.487 15.02 112.873 15.305 112.429 15.875C111.999 16.4323 111.783 17.2113 111.783 18.212C111.783 19.2 111.999 19.96 112.429 20.492C112.873 21.024 113.493 21.29 114.291 21.29ZM127.253 13.177C127.621 13.177 127.937 13.2277 128.203 13.329L128.184 15.495C127.779 15.3303 127.361 15.248 126.93 15.248C126.12 15.248 125.499 15.4823 125.068 15.951C124.65 16.4197 124.441 17.0403 124.441 17.813V23H122.085V16.122C122.085 15.1087 122.035 14.203 121.933 13.405H124.156L124.346 15.096C124.587 14.4753 124.967 14.0003 125.486 13.671C126.006 13.3417 126.595 13.177 127.253 13.177ZM138.917 9.016V23H136.58V21.461C136.289 21.993 135.871 22.411 135.326 22.715C134.781 23.0063 134.161 23.152 133.464 23.152C132.641 23.152 131.906 22.943 131.26 22.525C130.614 22.107 130.107 21.518 129.74 20.758C129.385 19.9853 129.208 19.105 129.208 18.117C129.208 17.129 129.385 16.2613 129.74 15.514C130.095 14.7667 130.595 14.1903 131.241 13.785C131.887 13.367 132.628 13.158 133.464 13.158C134.148 13.158 134.756 13.3037 135.288 13.595C135.833 13.8737 136.251 14.2727 136.542 14.792V9.016H138.917ZM134.091 21.29C134.876 21.29 135.484 21.0177 135.915 20.473C136.358 19.9283 136.58 19.1557 136.58 18.155C136.58 17.1543 136.365 16.3817 135.934 15.837C135.503 15.2923 134.895 15.02 134.11 15.02C133.312 15.02 132.691 15.2923 132.248 15.837C131.817 16.369 131.602 17.129 131.602 18.117C131.602 19.1177 131.817 19.8967 132.248 20.454C132.691 21.0113 133.306 21.29 134.091 21.29ZM156.676 19.827H150.064L148.696 23H146.226L152.344 9.472H154.339L160.476 23H158.025L156.676 19.827ZM155.859 17.927L153.37 12.132L150.881 17.927H155.859ZM171.345 9.016V23H169.008V21.461C168.716 21.993 168.298 22.411 167.754 22.715C167.209 23.0063 166.588 23.152 165.892 23.152C165.068 23.152 164.334 22.943 163.688 22.525C163.042 22.107 162.535 21.518 162.168 20.758C161.813 19.9853 161.636 19.105 161.636 18.117C161.636 17.129 161.813 16.2613 162.168 15.514C162.522 14.7667 163.023 14.1903 163.669 13.785C164.315 13.367 165.056 13.158 165.892 13.158C166.576 13.158 167.184 13.3037 167.716 13.595C168.26 13.8737 168.678 14.2727 168.97 14.792V9.016H171.345ZM166.519 21.29C167.304 21.29 167.912 21.0177 168.343 20.473C168.786 19.9283 169.008 19.1557 169.008 18.155C169.008 17.1543 168.792 16.3817 168.362 15.837C167.931 15.2923 167.323 15.02 166.538 15.02C165.74 15.02 165.119 15.2923 164.676 15.837C164.245 16.369 164.03 17.129 164.03 18.117C164.03 19.1177 164.245 19.8967 164.676 20.454C165.119 21.0113 165.733 21.29 166.519 21.29ZM185.655 13.158C186.745 13.158 187.555 13.4873 188.087 14.146C188.619 14.792 188.885 15.78 188.885 17.11V23H186.51V17.186C186.51 16.426 186.384 15.8813 186.13 15.552C185.89 15.21 185.484 15.039 184.914 15.039C184.256 15.039 183.736 15.2733 183.356 15.742C182.989 16.198 182.805 16.8313 182.805 17.642V23H180.43V17.186C180.43 16.4387 180.297 15.894 180.031 15.552C179.778 15.21 179.373 15.039 178.815 15.039C178.157 15.039 177.637 15.2733 177.257 15.742C176.877 16.198 176.687 16.8313 176.687 17.642V23H174.331V16.122C174.331 15.1087 174.281 14.203 174.179 13.405H176.402L176.573 14.925C176.852 14.355 177.251 13.918 177.77 13.614C178.302 13.31 178.91 13.158 179.594 13.158C181.064 13.158 182.02 13.766 182.463 14.982C182.767 14.412 183.198 13.9687 183.755 13.652C184.325 13.3227 184.959 13.158 185.655 13.158ZM191.82 13.405H194.176V23H191.82V13.405ZM194.309 9.054V11.391H191.668V9.054H194.309ZM202.665 13.158C204.958 13.158 206.104 14.4753 206.104 17.11V23H203.729V17.224C203.729 16.464 203.584 15.913 203.292 15.571C203.001 15.2163 202.551 15.039 201.943 15.039C201.221 15.039 200.639 15.2733 200.195 15.742C199.752 16.198 199.53 16.806 199.53 17.566V23H197.174V16.122C197.174 15.1087 197.124 14.203 197.022 13.405H199.245L199.416 14.982C199.746 14.3993 200.189 13.9497 200.746 13.633C201.316 13.3163 201.956 13.158 202.665 13.158Z" fill="#A4A6B3"/>
<circle cx="16" cy="16" r="16" fill="#3751FF"/>
<path d="M11 10C11 9.44772 11.4477 9 12 9H15.9905C18.2127 9 19.9333 9.60955 21.1524 10.8287C22.3841 12.0478 23 13.765 23 15.9803C23 18.2088 22.3841 19.9391 21.1524 21.1713C19.9333 22.3904 18.2127 23 15.9905 23H12C11.4477 23 11 22.5523 11 22V10Z" fill="url(#paint0_linear)"/>
<defs>
<linearGradient id="paint0_linear" x1="11" y1="9" x2="23" y2="23" gradientUnits="userSpaceOnUse">
<stop stop-color="white" stop-opacity="0.7"/>
<stop offset="1" stop-color="white"/>
</linearGradient>
</defs>
</svg>
